<svg id="Layer_3" data-name="Layer 3" xmlns="http://www.w3.org/2000/svg" xmlns:xlink="http://www.w3.org/1999/xlink" width="512.01" height="512" viewBox="0 0 512.01 512"><defs><linearGradient id="linear-gradient" x1="178.04" y1="258.81" x2="514.64" y2="595.41" gradientTransform="translate(256.01 -106.04) rotate(45)" gradientUnits="userSpaceOnUse"><stop offset="0" stop-color="#f5f7f8"/><stop offset="1" stop-color="#dbe0e4"/></linearGradient><linearGradient id="linear-gradient-2" x1="95.94" y1="15.2" x2="432.54" y2="351.8" gradientTransform="translate(256.01 -106.04) rotate(45)" gradientUnits="userSpaceOnUse"><stop offset="0" stop-color="#fbde88"/><stop offset="1" stop-color="#f8c352"/></linearGradient><linearGradient id="linear-gradient-3" x1="255.99" y1="206.29" x2="255.99" y2="303.74" gradientUnits="userSpaceOnUse"><stop offset="0.01" stop-color="#fbde88"/><stop offset="1" stop-color="#f8c352"/></linearGradient></defs><path d="M434.77,393.63c.44-.54.87-1.07,1.29-1.61l-90.63-90.63a17.62,17.62,0,0,1-4.21-17.95A89.55,89.55,0,0,0,228.55,170.78a17.62,17.62,0,0,1-17.94-4.21L120,75.94c-2.19,1.75-4.39,3.55-6.54,5.38-.52.45-1,.89-1.55,1.34-1.35,1.17-2.68,2.34-4,3.54l-1.75,1.59q-4.75,4.35-9.37,9a280.13,280.13,0,0,0-19.53,21.63L75.93,120l90.63,90.63a17.65,17.65,0,0,1,4.22,17.95A89.54,89.54,0,0,0,283.44,341.22a17.67,17.67,0,0,1,17.95,4.21L392,436.06c.53-.41,1.07-.85,1.6-1.28a285.83,285.83,0,0,0,41.15-41.15Z" transform="translate(0)" style="fill:#333843"/><path d="M214.81,176.38a17.65,17.65,0,0,0,17.95,4.21,89.6,89.6,0,0,1,107.44,45,89.56,89.56,0,0,0-111.65-54.82,17.62,17.62,0,0,1-17.94-4.21L120,75.94c-.49.39-1,.8-1.44,1.19a10.72,10.72,0,0,0,3,6Z" transform="translate(0)" style="fill:#1e2026"/><path d="M436.06,392l-90.63-90.63c-.28-.28-.55-.57-.81-.86a17.41,17.41,0,0,0,5,10.67l83.91,83.91c.4-.5.83-1,1.23-1.48S435.64,392.56,436.06,392Z" transform="translate(0)" style="fill:#1e2026"/><path d="M170.78,228.56A89.49,89.49,0,0,0,192.7,319.3c.94.94,1.9,1.84,2.87,2.73a89.48,89.48,0,0,1-19.19-87.86,17.64,17.64,0,0,0-4.21-17.95l-5.61-5.61A17.65,17.65,0,0,1,170.78,228.56Z" transform="translate(0)" style="fill:#1e2026"/><path d="M393.46,455c-69.86,52.24-155.84,69-230.43,48.62-16.14-4.4-32.88-5.66-49.6-5.21-18.22.49-43.71-12.06-65.73-34.08s-34.57-47.51-34.08-65.74c.44-16.72-.82-33.45-5.22-49.59C-11.94,274.38,4.79,188.39,57,118.53a10.83,10.83,0,0,1,16.31-1.16l93.23,93.24a17.65,17.65,0,0,1,4.22,17.95A89.54,89.54,0,0,0,283.44,341.22a17.67,17.67,0,0,1,17.95,4.21l93.23,93.24A10.81,10.81,0,0,1,393.46,455Z" transform="translate(0)" style="fill:url(#linear-gradient)"/><path d="M438.66,394.63l-93.23-93.24a17.62,17.62,0,0,1-4.21-17.95A89.55,89.55,0,0,0,228.55,170.78a17.62,17.62,0,0,1-17.94-4.21L117.37,73.33A10.81,10.81,0,0,1,118.53,57C188.62,4.61,274.94-12.06,349.75,8.62c16,4.42,32.56,5.75,49.13,5.31C417.11,13.46,442.56,26,464.57,48s34.64,47.64,34.07,65.89c-.5,16.77.76,33.55,5.14,49.75,20.06,74.47,3.28,160.16-48.81,229.81A10.83,10.83,0,0,1,438.66,394.63Z" transform="translate(0)" style="fill:url(#linear-gradient-2)"/><circle cx="255.99" cy="261.62" r="44.12" style="fill:#1e2026"/><circle cx="255.99" cy="256.01" r="44.12" style="fill:url(#linear-gradient-3)"/></svg>